<svg width="30" height="30" viewBox="0 0 30 30" fill="none" xmlns="http://www.w3.org/2000/svg">
<path d="M30 15C30 23.2843 23.2843 30 15 30C6.71573 30 0 23.2843 0 15C0 6.71573 6.71573 1.36004e-06 15 1.36004e-06C23.2843 1.36004e-06 30 6.71573 30 15Z" fill="#FFC977"/>
<path d="M15 22.9156C14.4926 22.9156 14.084 23.3241 14.084 23.8315V25.0841C14.084 25.5915 14.4926 26 15 26C15.5073 26 15.9159 25.5915 15.9159 25.0841V23.8315C15.9159 23.3241 15.5073 22.9156 15 22.9156Z" fill="black"/>
<path d="M15 8.10818C11.2017 8.10818 8.10818 11.1972 8.10818 15C8.10818 18.7984 11.1972 21.8919 15 21.8919C18.7984 21.8919 21.8919 18.8029 21.8919 15C21.8919 11.2017 18.7984 8.10818 15 8.10818ZM15 20.0555C12.2119 20.0555 9.94451 17.7882 9.94451 15C9.94451 12.2119 12.2119 9.94451 15 9.94451C17.7882 9.94451 20.0555 12.2119 20.0555 15C20.0555 17.7882 17.7882 20.0555 15 20.0555Z" fill="black"/>
<path d="M15 7.08449C15.5073 7.08449 15.9159 6.67592 15.9159 6.16857V4.91592C15.9159 4.40857 15.5073 4 15 4C14.4926 4 14.084 4.40857 14.084 4.91592V6.16857C14.084 6.67592 14.4926 7.08449 15 7.08449Z" fill="black"/>
<path d="M25.0841 14.0841H23.8314C23.3241 14.0841 22.9155 14.4927 22.9155 15C22.9155 15.5074 23.3241 15.9159 23.8314 15.9159H25.0841C25.5914 15.9159 26 15.5074 26 15C26 14.4927 25.5914 14.0841 25.0841 14.0841Z" fill="black"/>
<path d="M6.16857 14.0841H4.91592C4.40857 14.0841 4 14.4927 4 15C4 15.5074 4.40857 15.9159 4.91592 15.9159H6.16857C6.67592 15.9159 7.08449 15.5074 7.08449 15C7.08449 14.4927 6.67592 14.0841 6.16857 14.0841Z" fill="black"/>
<path d="M21.8918 9.40574L22.7763 8.52125C23.1355 8.16207 23.1355 7.58289 22.7763 7.2237C22.4171 6.86452 21.8379 6.86452 21.4787 7.2237L20.5942 8.10819C20.2351 8.46738 20.2351 9.04656 20.5942 9.40574C20.9534 9.76493 21.5326 9.76044 21.8918 9.40574Z" fill="black"/>
<path d="M8.10819 20.5943L7.2237 21.4788C6.86452 21.8379 6.86452 22.4171 7.2237 22.7763C7.58289 23.1355 8.16207 23.1355 8.52125 22.7763L9.40574 21.8918C9.76493 21.5326 9.76493 20.9535 9.40574 20.5943C9.04656 20.2351 8.46738 20.2396 8.10819 20.5943Z" fill="black"/>
<path d="M21.8918 20.5942C21.5326 20.2351 20.9534 20.2351 20.5942 20.5942C20.2351 20.9534 20.2351 21.5326 20.5942 21.8918L21.4787 22.7763C21.8379 23.1355 22.4171 23.1355 22.7763 22.7763C23.1355 22.4171 23.1355 21.8379 22.7763 21.4787L21.8918 20.5942Z" fill="black"/>
<path d="M8.10819 9.40574C8.46738 9.76493 9.04656 9.76493 9.40574 9.40574C9.76493 9.04656 9.76493 8.46738 9.40574 8.10819L8.52125 7.2237C8.16207 6.86452 7.58289 6.86452 7.2237 7.2237C6.86452 7.58289 6.86452 8.16207 7.2237 8.52125L8.10819 9.40574Z" fill="black"/>
</svg>
