<svg width="30" height="30" viewBox="0 0 30 30" fill="none" xmlns="http://www.w3.org/2000/svg">
<circle cx="15" cy="15" r="15" fill="#5C90BF"/>
<path d="M21.6547 14.4171H20.0476C19.2081 11.3493 16.8245 9.19783 14.1356 9.19783C13.4129 9.19783 12.7036 9.34724 12.0302 9.64605C11.2806 9.97474 10.5893 10.4827 9.99672 11.1252C9.72738 9.18787 10.2795 7.17089 11.5544 5.73161C11.8237 5.42782 11.8956 4.96964 11.7295 4.58119C11.5634 4.19771 11.2043 3.96862 10.8182 4.00349C9.94286 4.09313 9.09444 4.3521 8.29539 4.77542C6.48184 5.73161 5.1127 7.40994 4.43935 9.5066C3.766 11.6033 3.86924 13.8643 4.73113 15.8763C5.08127 16.693 5.54364 17.4251 6.0913 18.0576C5.94765 18.5905 5.87583 19.1433 5.87583 19.706C5.87583 22.6244 7.82405 25 10.2212 25H21.6547C24.0518 25 26 22.6244 26 19.706C26 16.7926 24.0518 14.4171 21.6547 14.4171ZM6.16761 10.1939C6.62998 8.74961 7.53226 7.56931 8.72185 6.82228C7.87343 8.98866 7.87343 11.5136 8.82061 13.7298C9.75881 15.9261 11.523 17.5297 13.5834 18.1771C12.9236 18.466 12.2322 18.6104 11.523 18.6104C9.34133 18.6104 7.32577 17.196 6.38757 15.0097C5.74116 13.4908 5.66035 11.7826 6.16761 10.1939ZM21.6547 22.9731H10.2212C8.83407 22.9731 7.70734 21.5089 7.70734 19.711C7.70734 19.6363 7.71182 19.5616 7.71631 19.4819C8.85203 20.224 10.1628 20.6373 11.523 20.6373C12.6407 20.6373 13.7226 20.3634 14.7416 19.8306C15.5406 19.4072 16.2589 18.8445 16.8739 18.1472C17.1432 17.8435 17.215 17.3853 17.0489 16.9968C16.8828 16.6133 16.5192 16.3793 16.1377 16.4191C13.9381 16.6432 11.8103 15.4032 10.7105 13.3264C10.7195 13.3165 10.7239 13.3065 10.7329 13.2965C11.2536 12.4798 11.936 11.8722 12.7126 11.5335C13.1704 11.3343 13.6508 11.2298 14.1401 11.2298C16.1826 11.2298 17.9916 13.0774 18.436 15.6223C18.5213 16.1004 18.8984 16.444 19.3338 16.444H21.6547C23.0418 16.444 24.1685 17.9082 24.1685 19.706C24.1685 21.5139 23.0418 22.9731 21.6547 22.9731Z" fill="black"/>
</svg>
