<svg width="30" height="30" viewBox="0 0 0 0" fill="none" xmlns="http://www.w3.org/2000/svg">
<path d="M15.0737 19.1162C14.8984 19.3111 13.772 20.54 13.9088 20.6938C16.1697 23.2374 24.1439 20.5628 26.7722 20.1841C29.2481 19.8274 31.7343 19.5976 34.2233 19.3589C35.077 19.2771 37.2717 18.6696 36.796 19.3832C35.452 21.3991 29.7891 22.3089 27.743 23.048C24.7353 24.1346 15.5391 26.8575 18.6415 26.0819C19.4074 25.8904 20.0637 25.4522 19.3454 26.6401C18.9009 27.3752 16.0791 29.9995 17.4765 30.8147C20.464 32.5573 27.4562 29.1304 30.5584 28.5818C35.924 27.6327 30.4417 30.7478 28.7381 31.8097C26.3095 33.3237 18.2639 36.2984 21.0443 35.6202C23.2882 35.073 25.3435 33.829 27.3547 32.732C28.9782 31.8465 23.9671 34.2685 22.452 35.329C21.7393 35.8279 28.2042 33.6293 29.1507 33.3631C31.2393 32.7756 33.375 32.3587 35.5096 31.9796C36.1281 31.8698 37.2743 31.5313 36.0921 31.9796C32.182 33.4628 28.0132 35.367 24.3451 37.3677C24.1931 37.4506 23.8578 37.8018 24.0296 37.7803C24.4826 37.7237 25.4804 37.2653 25.7528 37.1493C27.9917 36.1957 30.2046 35.2321 32.5972 34.7222C40.1757 33.1071 25.3445 40.3444 32.6942 39.5278C36.2453 39.1333 41.7988 35.2545 45.315 36.8823C46.5629 37.46 37.6918 43.3077 36.9901 43.7024C36.2458 44.121 31.4224 46.0896 32.3059 45.8624C33.835 45.4693 35.4385 45.3523 36.9659 44.9159C37.2736 44.828 36.3277 45.0355 36.0436 45.1829C34.3983 46.036 32.9132 47.239 31.2865 48.1439C30.5941 48.5291 24.8708 51.3962 25.7043 51.3962C29.3296 51.3962 32.9421 49.5336 36.4319 48.7749C36.9144 48.67 42.3107 47.3083 39.8783 48.872C36.9317 50.7663 33.8921 52.4785 30.8497 54.2115C28.1999 55.7209 33.0685 53.9997 33.5922 53.799C36.5578 52.6621 40.3631 51.2123 43.616 51.4447C43.8795 51.4635 43.196 51.7676 43.0093 51.9544C42.2522 52.7114 41.6564 53.5671 40.8249 54.2601C39.7647 55.1436 37.9856 56.1549 40.4123 55.3765C42.3704 54.7485 44.3853 54.2787 46.3343 53.6291C48.4106 52.937 42.5074 55.7553 40.6307 56.8813C40.2389 57.1164 34.4573 60.4036 37.5484 59.2113C39.6294 58.4086 42.3988 55.9105 44.6354 55.9105C45.0708 55.9105 44.1342 56.6561 43.7616 56.8813C41.2101 58.4235 38.4844 59.7132 35.8494 61.1044C35.4334 61.3241 30.2969 63.9029 33.5922 62.949C38.7204 61.4645 43.5063 59.656 48.8585 58.9686C50.0539 58.8151 58.0048 57.1185 54.7562 59.7938C53.3009 60.9923 51.1581 62.6638 49.2468 63.0461C46.8725 63.5209 58.5058 60.2846 56.2853 61.25C52.2487 63.0051 48.4672 65.1382 44.2956 66.6381C43.1814 67.0387 37.9397 69.2899 41.5773 67.3177C45.2836 65.3083 48.8342 63.7116 52.8631 62.4393C55.3707 61.6474 51.0713 63.5643 50.703 63.7742C48.3598 65.1101 41.2623 68.6962 43.9073 68.1672C48.7404 67.2005 53.6662 65.3393 58.6153 65.1091C61.8964 64.9565 47.5694 71.7922 50.7759 71.0796C53.076 70.5685 54.9984 69.4016 57.0134 68.24C60.8744 66.0142 56.0231 69.5188 55.0232 70.0845C50.8003 72.4738 45.0102 73.9375 41.3346 77.123C39.0446 79.1077 46.776 74.432 49.6109 73.3611C50.0235 73.2052 57.7365 70.7782 54.8291 72.3174C52.5394 73.5296 50.6885 75.2841 48.4701 76.5891C47.8429 76.958 55.2778 74.1486 53.0816 75.5697C49.5621 77.847 58.4422 76.6323 59.0036 76.5405C60.8914 76.232 62.9864 75.6746 60.4113 77.4628C58.4361 78.8345 56.2435 80.156 54.0524 81.152C52.6453 81.7915 53.2639 82.0764 54.4893 81.5403C55.3339 81.1708 61.1405 79.0723 60.7996 79.72C60.4082 80.4638 56.988 82.8665 57.3047 83.579C57.5882 84.2171 63.3348 82.3845 63.9063 82.2927C66.4524 81.8835 66.6119 81.6107 64.78 83.0936C63.238 84.3419 58.0876 86.7342 60.0715 86.7342C62.0051 86.7342 64.8724 85.6518 66.5275 84.6469C67.1179 84.2885 63.671 85.797 63.2752 86.0061C62.035 86.6613 60.7836 87.313 59.5861 88.0448C59.0912 88.3473 57.9406 89.4813 58.0813 88.9186C58.3741 87.7476 62.5633 86.757 63.4937 86.4187C69.3929 84.2735 58.8201 89.5245 60.7025 89.3797C64.6632 89.075 68.6212 87.4194 72.4981 86.5886C74.8108 86.093 71.9909 87.9749 71.4302 88.5788C68.7174 91.5002 66.4539 92.3775 62.1588 94.5251C60.0139 95.5975 57.8774 96.6926 55.7028 97.7045C55.0638 98.0019 54.0054 98.2718 55.3145 98.1899C59.5221 97.927 63.22 95.4047 67.11 94.0154C68.61 93.4797 66.2712 95.0515 65.8965 95.3746C65.3578 95.8389 60.6708 99.0132 62.1102 99.0637C65.0912 99.1683 68.1036 97.7505 71.0418 97.3405C73.5414 96.9917 71.61 97.9451 70.5564 99.1608C70.2585 99.5045 67.623 102.122 69.3429 101.418C71.0762 100.709 73.0524 99.8414 74.9737 99.9374C76.2364 100.001 73.2003 101.741 72.2796 102.607C71.956 102.912 68.9743 105.617 69.7798 105.617C71.2616 105.617 75.9661 103.855 75.9445 103.869C74.4287 104.898 72.6694 106.086 71.7457 107.728C71.4341 108.282 75.4814 107.022 76.0901 106.927C77.2324 106.75 83.1268 104.733 80.7501 106.782C79.7629 107.633 75.314 110.031 75.1193 111.199C75.0324 111.72 80.7708 109.256 81.0413 109.136C81.7269 108.831 87.35 106.617 86.5993 107.461C84.2287 110.128 81.2216 112.146 78.5657 114.5C76.7687 116.093 76.6989 116.225 78.7842 115.155C82.8854 113.052 87.2262 111.824 91.6233 110.519C94.1728 109.763 89.8313 112.596 89.1963 113.165C86.2177 115.835 82.4593 117.691 79.5851 120.373C78.5339 121.354 82.5106 118.852 82.5219 118.844C86.0304 116.524 89.6961 114.352 93.6621 112.898C96.108 112.001 89.2437 115.667 87.1333 117.194C84.5626 119.054 76.9448 124.755 79.5851 122.995C82.1826 121.263 85.4526 120.217 88.3468 119.136C89.5777 118.676 97.6704 116.468 97.4483 116.733C94.743 119.962 91.7145 123.153 88.274 125.591C87.0305 126.473 80.4824 129.767 85.4586 127.509C90.8447 125.065 96.3335 122.883 102.035 121.271C103.166 120.952 102.707 121.21 102.157 121.635C100.616 122.825 99.229 124.165 97.7881 125.47C95.7811 127.288 93.706 129.024 91.4777 130.567C90.7833 131.048 88.6009 131.967 89.439 132.072C91.3506 132.311 95.3101 129.125 96.9386 128.383C97.2752 128.229 102.534 125.839 101.72 126.684C98.9779 129.527 95.8352 132.217 92.6427 134.523C91.7235 135.187 79.3593 142.93 79.7793 143.77C79.7856 143.783 90.09 137.722 90.7496 137.363C92.6816 136.311 94.5832 135.19 96.526 134.159C97.092 133.859 98.2838 133.243 97.4483 134.305C95.2834 137.055 92.4761 139.235 90.337 141.998C87.8963 145.151 93.5002 141.996 94.5844 141.61C97.2557 140.658 99.9646 139.794 102.691 139.013C103.48 138.787 107.908 136.997 108.904 137.605C109.86 138.189 104.986 143.694 104.681 144.037C104.623 144.102 101.216 148.352 102.497 148.139C105.785 147.591 109.066 145.86 112.423 145.736C113.09 145.711 106.661 151.798 105.943 152.362C104.34 153.621 102.701 154.84 101.137 156.148C100.734 156.486 99.2337 157.776 100.822 156.876C103.39 155.421 106.065 153.993 108.807 152.896C111.845 151.681 105.423 155.777 104.827 156.294C104.49 156.585 99.4933 161.29 101.914 160.371C106.314 158.702 110.561 156.998 115.117 155.711C116.309 155.375 120.834 153.227 118.976 155.736C117.023 158.372 114.721 160.602 112.253 162.75C110.395 164.367 112.845 163.157 113.661 162.823C115.363 162.124 120.302 159.817 118.855 160.954C117.78 161.798 112.551 169.7 114.438 169.303C117.418 168.676 120.187 168.165 123.248 167.871C126.11 167.596 125.306 168.595 124.097 170.808C122.805 173.174 121.444 175.496 120.166 177.87C119.534 179.043 124.769 177.081 125.214 176.924C127.119 176.251 129.926 174.899 127.471 177.749C125.592 179.931 122.96 181.688 121.428 184.157C121.187 184.544 126.144 181.861 126.67 181.584C127.536 181.128 138.174 176.248 138.174 177.773C138.174 179.07 130.763 188.706 131.573 188.598C134.984 188.143 138.354 186.728 141.766 186.098C145.024 185.498 142.886 186.855 141.33 188.355C140.983 188.689 138.655 190.37 140.359 190.37C142.329 190.37 144.404 189.502 146.378 189.302C150.501 188.884 150.321 189.19 148.514 192.457C148.138 193.136 145.365 196.872 147.324 196.219C149.575 195.469 151.614 194.231 153.853 193.428C154.881 193.06 154.789 192.818 153.878 193.768C151.831 195.9 149.617 197.979 147.397 199.932C145.894 201.255 150.486 198.918 150.892 198.67C151.1 198.544 154.906 195.865 153.611 197.457C151.979 199.462 149.473 200.778 148.247 203.136C147.192 205.165 158.144 200.547 158.756 200.272C160.519 199.483 161.082 199.146 160.067 200.952C158.7 203.381 157.27 205.592 155.504 207.748C154.112 209.445 155.216 209.081 156.523 208.451C159.35 207.09 162.327 206.456 165.406 206C166.784 205.796 160.681 211.58 161.523 212.116C162.227 212.564 164.22 211.512 164.848 211.146C166.447 210.213 162.132 213.665 160.698 214.835C158.473 216.65 156.087 218.251 153.78 219.956C152.491 220.909 148.642 223.048 150.237 223.208C152.117 223.396 156.516 219.228 158.222 218.427C161.479 216.896 166.493 214.607 170.236 215.32C171.774 215.613 169.738 219.64 169.338 220.271C168.006 222.374 161.924 226.888 163.95 225.441C165.937 224.022 168.52 223.839 170.891 223.669C173.994 223.448 168.817 226.742 167.955 227.552C166.394 229.019 168.054 227.462 168.319 227.261C169.82 226.123 171.624 225.46 173.415 224.931C174.546 224.598 179.455 222.816 178.27 225.514C178.173 225.733 176.417 228.871 177.517 228.742C179.672 228.488 187.554 225.086 188.099 228.353C188.202 228.968 190.518 230.112 188.949 227.31C188.119 225.828 187.208 224.401 186.424 222.892C186.388 222.822 184.849 219.816 185.745 220.126C186.667 220.445 189.858 226.376 189.822 225.125C189.8 224.332 187.505 218.187 188.075 218.427C190.121 219.288 193.61 220.404 193.22 217.116C193.172 216.709 192.278 212.747 191.813 212.747C190.529 212.747 192.909 215.107 193.754 216.072C196.672 219.407 194.976 207.161 194.871 206.316C194.432 202.805 195.602 205.04 196.909 206.68C196.967 206.752 199.485 209.409 199.361 208.354C199.128 206.374 198.001 204.56 197.783 202.554C197.697 201.759 200.248 205.116 200.72 205.588C202.413 207.28 198.225 196.064 202.734 199.156C203.718 199.83 205.785 201.801 207.2 201.195C208.751 200.53 208.507 194.311 208.851 192.918C209.523 190.189 210.022 189.02 212.103 191.341C212.248 191.503 214.675 193.885 214.675 193.549C214.675 191.103 213.725 188.426 213.51 185.953C213.462 185.389 213.071 182.054 214.311 183.914C214.55 184.271 216.526 187.38 215.986 185.273C214.735 180.393 215.881 184.043 217.928 184.399C218.541 184.506 217.732 183.162 217.515 182.579C216.745 180.511 216.168 178.459 215.865 176.269C215.706 175.12 214.964 171.252 217.345 172.652C222.537 175.706 217.936 170.526 219.384 170.468C220.09 170.44 221.803 172.309 221.18 171.196C220.026 169.135 218.277 165.924 218.413 163.478C218.453 162.769 222.129 166.068 222.515 166.512C223.72 167.898 223.403 167.168 223.122 165.759C222.853 164.414 225.593 170.598 225.646 166.827C225.706 162.539 226.786 159.084 228.024 154.983C228.634 152.964 229.206 150.934 229.82 148.916C229.991 148.353 230.14 146.352 230.743 147.702C232.108 150.762 234.066 153.686 235.937 156.464C237.012 158.06 240.987 162.266 239.626 160.905C237.693 158.972 236.468 156.144 235.111 153.818C232.267 148.942 235.937 155.476 237.004 156.609C239.098 158.834 238.763 157.749 237.684 155.76C236.702 153.949 233.831 148.535 235.136 150.129C236.175 151.4 236.972 153.43 238.655 154.012C239.407 154.273 238.092 151.058 237.902 150.712C236.543 148.219 240.294 155.06 240.038 151.61C239.991 150.975 238.898 146.363 239.868 145.809C241.641 144.796 246.296 148.048 246.543 147.678C246.967 147.041 245.851 134.975 247.514 136.95C247.92 137.433 250.69 140.87 249.771 138.479C249.007 136.492 249.237 138.33 249.237 139.353C249.237 139.628 249.238 138.603 249.14 138.382C248.537 137.025 249.02 138.796 249.237 139.256C249.503 139.82 250.686 141.361 250.669 141.319C249.917 139.515 248.988 137.506 248.023 135.809C247.238 134.427 251.866 141.774 250.547 138.285C250.32 137.682 249.648 135.163 249.722 135.421C249.927 136.136 250.444 136.986 251.081 137.411C251.594 137.753 249.708 132.318 251.64 136.61C252.684 138.932 251.906 134.914 251.761 134.353C251.612 133.776 249.887 128.665 250.79 128.407C251.794 128.12 254.495 133.283 254.431 132.994C253.832 130.298 252.421 127.739 251.518 125.13C250.529 122.272 252.218 126.011 252.732 126.781C253.86 128.472 256.471 130.082 253.606 130.082" stroke="white" stroke-width="3" stroke-linecap="round"/>
<line x1="256.422" y1="110.407" x2="166.422" y2="201.385" stroke="white" stroke-width="4"/>
<path d="M272 147.832L256 112.832" stroke="white" stroke-width="4"/>
<path d="M2 27.6014L35 3" stroke="white" stroke-width="4"/>
<line x1="2.41361" y1="26.5615" x2="159.89" y2="257.183" stroke="white" stroke-width="4"/>
<line x1="33.6459" y1="1.86375" x2="169.646" y2="198.864" stroke="white" stroke-width="4"/>
<line x1="272.426" y1="144.402" x2="159.426" y2="259.289" stroke="white" stroke-width="4"/>
</svg>
